<?xml version="1.0" encoding="UTF-8" standalone="no"?>
<!-- Created with Inkscape (http://www.inkscape.org/) -->

<svg
   version="1.1"
   id="svg2"
   width="3688.8132"
   height="4406.5601"
   viewBox="0 0 3688.8132 4406.5601"
   sodipodi:docname="vecteezy_dice-d20-vector-icon-design_14913037.eps"
   xmlns:inkscape="http://www.inkscape.org/namespaces/inkscape"
   xmlns:sodipodi="http://sodipodi.sourceforge.net/DTD/sodipodi-0.dtd"
   xmlns="http://www.w3.org/2000/svg"
   xmlns:svg="http://www.w3.org/2000/svg">
  <defs
     id="defs6" />
  <sodipodi:namedview
     id="namedview4"
     pagecolor="#ffffff"
     bordercolor="#000000"
     borderopacity="0.25"
     inkscape:showpageshadow="2"
     inkscape:pageopacity="0.0"
     inkscape:pagecheckerboard="0"
     inkscape:deskcolor="#d1d1d1" />
  <g
     id="g8"
     inkscape:groupmode="layer"
     inkscape:label="ink_ext_XXXXXX"
     transform="matrix(1.3333333,0,0,-1.3333333,0,4406.56)">
    <g
       id="g10"
       transform="scale(0.1)">
      <path
         d="M 1174.95,8874 13813.7,1263.6 26452.7,8874 V 24175.2 L 13813.7,31785.4 1174.95,24175.2 Z M 13813.7,0 c -107.5,0 -215.1,26.8008 -295.7,80.5977 L 287.445,8067.4 C 126.176,8174.8 18.6172,8363.2 18.6172,8551.5 v 15946.2 c 0,215.2 107.5588,403.4 268.8278,511 L 13518,32968.5 c 188.2,107.6 403.3,107.6 591.6,0 L 27340,25008.7 c 161.2,-107.6 268.9,-295.8 268.9,-511 V 8551.2 c 0,-215.1 -107.7,-403.4 -268.9,-484.1 L 14109.6,107.398 C 14028.7,26.8008 13921.3,0 13813.7,0 v 0"
         style="fill:#100f0d;fill-opacity:1;fill-rule:evenodd;stroke:none"
         id="path12" />
      <path
         d="m 583.324,23906.1 c -268.953,0 -510.9881,188.3 -564.7068,430.3 -80.6328,322.7 107.5588,618.6 430.2308,699.2 l 13230.552,3227 c 322.5,80.6 618.5,-107.6 699.1,-430.4 80.7,-322.7 -107.6,-618.5 -430.3,-699.2 L 717.805,23906.1 c -26.922,26.9 -80.77,0 -134.481,0"
         style="fill:#100f0d;fill-opacity:1;fill-rule:evenodd;stroke:none"
         id="path14" />
      <path
         d="m 27044.2,23906.1 c -53.8,0 -80.6,0 -134.5,26.9 l -13230.5,3226.9 c -322.6,80.7 -510.8,403.5 -430.2,699.2 80.6,295.9 403.3,511 699.2,430.4 l 13230.5,-3227 c 322.5,-80.6 510.9,-403.4 430.2,-699.2 -53.8,-268.9 -295.7,-457.2 -564.7,-457.2"
         style="fill:#100f0d;fill-opacity:1;fill-rule:evenodd;stroke:none"
         id="path16" />
      <path
         d="m 27044.2,7986.8 c -80.6,0 -161.2,26.8 -268.9,53.5 l -3684,1828.6 H 4509.47 L 852.152,8040.3 c -295.75,-134.4 -645.339,-26.7 -779.8161,269 -134.4804,295.8 -26.9257,645.3 268.9531,779.8 l 3764.751,1882.5 c 80.63,26.8 161.26,53.5 268.82,53.5 l 18877.74,0.3 c 80.6,0 188.3,-27 268.9,-53.8 L 27340,9089.1 c 295.7,-134.5 403.4,-484 268.9,-779.8 -134.5,-215.1 -349.6,-322.5 -564.7,-322.5"
         style="fill:#100f0d;fill-opacity:1;fill-rule:evenodd;stroke:none"
         id="path18" />
      <path
         d="m 4374.86,9868.9 c -107.56,0 -188.19,27.1 -268.82,80.7 -268.96,161.3 -376.52,511.1 -242.04,779.8 l 9465.8,17291.1 c 161.2,268.9 510.8,376.4 779.8,241.9 268.9,-161.2 376.4,-511 241.9,-779.8 L 4885.85,10164.7 C 4778.3,9976.6 4563.18,9868.9 4374.86,9868.9"
         style="fill:#100f0d;fill-opacity:1;fill-rule:evenodd;stroke:none"
         id="path20" />
      <path
         d="m 23225.5,9868.9 c -215.1,0 -403.2,107.7 -510.9,295.8 l -9411.9,17291.1 c -161.3,268.8 -53.7,645.4 241.9,779.8 269,161.3 645.4,53.8 779.8,-242 l 9412.2,-17291 c 161.3,-269 53.6,-645.3 -242.1,-779.8 -80.7,-53.9 -161.3,-53.9 -269,-53.9"
         style="fill:#100f0d;fill-opacity:1;fill-rule:evenodd;stroke:none"
         id="path22" />
      <path
         d="m 4374.86,9868.9 c -241.91,0 -483.94,161.3 -564.7,403.5 L 45.4102,22642.3 c -80.6329,295.8 80.6368,618.6 376.5158,726 295.746,80.8 618.544,-80.7 725.974,-376.4 L 4912.77,10622 c 80.64,-295.8 -80.76,-618.6 -376.51,-726 -53.71,-27.1 -107.55,-27.1 -161.4,-27.1"
         style="fill:#100f0d;fill-opacity:1;fill-rule:evenodd;stroke:none"
         id="path24" />
      <path
         d="m 23225.5,9868.9 c -53.6,0 -107.4,0 -161.3,27.1 -295.7,107.4 -484,430.2 -376.4,726 l 3818.5,12369.9 c 107.7,295.7 430.2,483.9 726,376.4 296,-107.6 484.1,-430.2 376.6,-726 L 23790.2,10272.4 c -80.6,-242.2 -295.7,-403.5 -564.7,-403.5"
         style="fill:#100f0d;fill-opacity:1;fill-rule:evenodd;stroke:none"
         id="path26" />
      <path
         d="m 13813.7,0 c -161.3,0 -295.7,53.5977 -430.2,188.098 L 3944.63,10030.2 c -215.11,242.2 -215.11,591.8 26.93,833.7 242.03,215.1 591.62,215.1 833.66,-26.8 L 14244.1,994.902 C 14459.2,753 14459.2,403.199 14217,161.301 14109.6,53.5977 13975.1,0 13813.7,0"
         style="fill:#100f0d;fill-opacity:1;fill-rule:evenodd;stroke:none"
         id="path28" />
      <path
         d="m 13813.7,0 c -134.5,0 -295.7,53.5977 -403.3,161.301 -242,215.097 -242,591.5 -26.9,833.601 l 9411.8,9842.198 c 215.3,241.9 591.7,241.9 833.6,26.8 242.2,-215.1 242.2,-591.5 27.1,-833.7 L 14244.1,188.098 C 14136.4,53.5977 13975.1,0 13813.7,0"
         style="fill:#100f0d;fill-opacity:1;fill-rule:evenodd;stroke:none"
         id="path30" />
      <path
         d="m 13813.7,27159.9 c -322.7,0 -591.5,269 -591.5,591.7 v 4705.9 c 0,322.8 268.8,591.7 591.5,591.7 322.7,0 591.6,-268.9 591.6,-591.7 v -4732.9 c 0,-295.7 -268.9,-564.7 -591.6,-564.7"
         style="fill:#100f0d;fill-opacity:1;fill-rule:evenodd;stroke:none"
         id="path32" />
    </g>
  </g>
</svg>
